<svg xmlns:dc="http://purl.org/dc/elements/1.1/" xmlns:cc="http://creativecommons.org/ns#" xmlns:rdf="http://www.w3.org/1999/02/22-rdf-syntax-ns#" xmlns:svg="http://www.w3.org/2000/svg" xmlns="http://www.w3.org/2000/svg" xmlns:sodipodi="http://sodipodi.sourceforge.net/DTD/sodipodi-0.dtd" xmlns:inkscape="http://www.inkscape.org/namespaces/inkscape" version="1.1" x="0px" y="0px" viewBox="0 0 100 125"><g transform="translate(0,-952.36218)"><path style="font-size:medium;font-style:normal;font-variant:normal;font-weight:normal;font-stretch:normal;text-indent:0;text-align:start;text-decoration:none;line-height:normal;letter-spacing:normal;word-spacing:normal;text-transform:none;direction:ltr;block-progression:tb;writing-mode:lr-tb;text-anchor:start;baseline-shift:baseline;opacity:1;color:#000000;fill:#000000;fill-opacity:1;stroke:none;stroke-width:2.96297121000000010;marker:none;visibility:visible;display:inline;overflow:visible;enable-background:accumulate;font-family:Sans;-inkscape-font-specification:Sans" d="M 47.21875 22 A 2.0002 2.0002 0 0 0 46.75 22.125 L 5.28125 38.125 A 2.0002 2.0002 0 0 0 5.28125 41.84375 L 20.1875 47.59375 L 20.1875 63.4375 A 2.0002 2.0002 0 0 0 21.40625 65.28125 L 46.6875 75.84375 A 2.0002 2.0002 0 0 0 48.25 75.84375 L 73.53125 65.28125 A 2.0002 2.0002 0 0 0 74.75 63.4375 L 74.75 47.625 L 81.21875 45.125 A 2.0080405 2.0080405 0 1 0 79.78125 41.375 L 47.46875 53.84375 L 11.53125 40 L 47.46875 26.125 L 86.9375 41.34375 L 86.9375 64.28125 C 84.015552 65.146117 81.875 67.849725 81.875 71 C 81.875 74.8361 85.057261 78 88.9375 78 C 92.817738 78 96.03125 74.8361 96.03125 71 C 96.03125 67.848183 93.861623 65.144742 90.9375 64.28125 L 90.9375 40 A 2.0002 2.0002 0 0 0 89.65625 38.125 L 48.1875 22.125 A 2.0002 2.0002 0 0 0 47.21875 22 z M 24.1875 49.125 L 46.75 57.84375 A 2.0002 2.0002 0 0 0 48.1875 57.84375 L 70.75 49.15625 L 70.75 62.09375 L 47.46875 71.84375 L 24.1875 62.0625 L 24.1875 49.125 z M 88.9375 67.96875 C 90.643586 67.96875 92 69.3133 92 71 C 92 72.6867 90.643586 74.03125 88.9375 74.03125 C 87.231413 74.03125 85.875 72.6867 85.875 71 C 85.875 69.3133 87.231413 67.96875 88.9375 67.96875 z " transform="translate(0,952.36218)"/></g><text x="0" y="115" fill="#000000" font-size="5px" font-weight="bold" font-family="'Helvetica Neue', Helvetica, Arial-Unicode, Arial, Sans-serif">Created by pam pyke</text><text x="0" y="120" fill="#000000" font-size="5px" font-weight="bold" font-family="'Helvetica Neue', Helvetica, Arial-Unicode, Arial, Sans-serif">from the Noun Project</text></svg>