<?xml version="1.0" encoding="utf-8"?>
<!-- Generator: Adobe Illustrator 19.0.0, SVG Export Plug-In . SVG Version: 6.00 Build 0)  -->
<svg version="1.1" id="layer" xmlns="http://www.w3.org/2000/svg" xmlns:xlink="http://www.w3.org/1999/xlink" x="0px" y="0px"
	 viewBox="-153 -46 652 652" style="enable-background:new -153 -46 652 652;" xml:space="preserve">
<style type="text/css">
	.st0{fill:#0099D8;}
	.st1{fill:#939598;}
	.st2{fill:#FFFFFF;}
</style>
<path class="st0" d="M-131,295.8l19.7-42.7c0.5-1,1.1-1.6,2.3-1.6h0.1c1.2,0,1.8,0.7,2.3,1.6l19.6,42.5c0.2,0.4,0.3,0.7,0.3,1.1
	c0,0.9-0.7,1.6-1.6,1.6c-0.8,0-1.4-0.6-1.7-1.3l-5.4-11.9h-27.2l-5.4,11.9c-0.3,0.8-0.9,1.3-1.6,1.3c-0.9,0-1.6-0.7-1.6-1.5
	C-131.3,296.6-131.2,296.2-131,295.8 M-96.9,282.1l-12.1-26.7l-12.2,26.7H-96.9z M-76.8,296.7c0,1,0.7,1.6,1.6,1.6
	c0.9,0,1.6-0.7,1.6-1.6v-12.4c0-10.8,6.4-16.1,13.5-16.8c1.1-0.1,1.7-0.9,1.7-1.8c0-1-0.7-1.8-1.7-1.8c-4.7,0-10.6,3.6-13.5,10.1
	v-8.2c0-1-0.7-1.6-1.6-1.6c-0.9,0-1.6,0.7-1.6,1.6V296.7z M-20.9,296.7c0,1-0.7,1.6-1.6,1.6c-0.9,0-1.6-0.7-1.6-1.6v-6.1
	c-2.9,4.4-7.2,8.3-13.8,8.3c-8.1,0-16.3-6.5-16.3-17.4v-0.1c0-10.9,8.2-17.6,16.3-17.6c6.7,0,11.1,3.8,13.8,8v-20.3
	c0-1,0.7-1.6,1.6-1.6s1.6,0.7,1.6,1.6V296.7z M-50.8,281.1v0.1c0,8.8,6.1,14.5,13.2,14.5c7,0,13.7-5.9,13.7-14.4v-0.1
	c0-8.6-6.7-14.4-13.7-14.4C-44.9,266.8-50.8,272.1-50.8,281.1 M-11.4,288.3v-0.1c0-7,6-10.9,14.7-10.9c4.7,0,7.9,0.6,11.1,1.5v-1.5
	c0-6.8-4.1-10.3-11.1-10.3c-3.7,0-6.8,0.9-9.5,2.2c-0.3,0.1-0.5,0.2-0.7,0.2c-0.8,0-1.5-0.7-1.5-1.5c0-0.8,0.6-1.3,0.9-1.4
	c3.4-1.5,6.8-2.5,11.1-2.5c4.5,0,8.2,1.2,10.6,3.7c2.2,2.2,3.4,5.3,3.4,9.5v19.6c0,1-0.7,1.6-1.6,1.6s-1.6-0.7-1.6-1.6v-4.2
	c-2.3,3.2-6.5,6.4-12.8,6.4C-4.7,298.8-11.4,295.3-11.4,288.3 M14.5,285.5v-3.8c-2.8-0.7-6.6-1.5-11.4-1.5C-4,280.1-8,283.3-8,288
	v0.1c0,4.9,4.6,7.7,9.7,7.7C8.6,295.8,14.5,291.6,14.5,285.5 M29.2,304.1c-0.5-0.3-0.7-0.9-0.7-1.4c0-0.7,0.8-1.5,1.6-1.5
	c0.4,0,0.7,0.1,0.9,0.3c3.8,2.8,8.2,4.3,12.9,4.3c7.7,0,13.2-4.4,13.2-13v-4.9c-2.9,4.1-7.4,7.8-14,7.8c-8.1,0-16.1-6.2-16.1-15.8
	v-0.1c0-9.7,8-15.9,16.1-15.9c6.7,0,11.3,3.6,14,7.5v-5.3c0-0.9,0.7-1.6,1.6-1.6c0.9,0,1.6,0.7,1.6,1.6v27c0,4.9-1.6,8.7-4.3,11.4
	c-2.9,2.9-7.2,4.5-12.2,4.5C38.6,308.7,33.6,307.1,29.2,304.1 M57.4,279.7v-0.1c0-7.8-6.9-12.8-13.9-12.8c-7,0-13,4.9-13,12.7v0.1
	c0,7.6,6.1,12.8,13,12.8C50.4,292.5,57.4,287.3,57.4,279.7 M72.6,296.7c0,1,0.7,1.6,1.6,1.6c0.9,0,1.6-0.7,1.6-1.6v-18
	c0-7,5.1-12,11.7-12c6.8,0,10.7,4.5,10.7,11.5v18.6c0,1,0.7,1.6,1.6,1.6c0.9,0,1.6-0.7,1.6-1.6v-19.2c0-8-4.9-13.8-13.4-13.8
	c-6.1,0-9.9,3.1-12.1,7v-19.4c0-0.9-0.7-1.6-1.6-1.6c-0.9,0-1.6,0.7-1.6,1.6V296.7z"/>
<path class="st1" d="M111.7,275.1V275c0-12.4,9-23.8,22.8-23.8c6.9,0,11.5,1.9,15.7,5.1c0.4,0.3,0.7,0.8,0.7,1.4
	c0,0.9-0.8,1.7-1.7,1.7c-0.3,0-0.7-0.1-1.1-0.5c-3.6-2.8-7.4-4.7-13.8-4.7c-11.2,0-19,9.5-19,20.6v0.1c0,11.9,7.4,20.8,19.8,20.8
	c5.9,0,11.3-2.4,14.7-5.3v-13.2h-14.4c-0.9,0-1.6-0.7-1.6-1.6s0.7-1.6,1.6-1.6h15.9c0.9,0,1.7,0.8,1.7,1.7v15.1c0,0.7-0.5,1.4-1.2,2
	c-4.3,3.4-10.1,5.9-16.9,5.9C120.3,298.8,111.7,288.1,111.7,275.1 M164.7,296.7c0,1,0.7,1.6,1.6,1.6c0.9,0,1.6-0.7,1.6-1.6v-12.4
	c0-10.8,6.4-16.1,13.5-16.8c1.1-0.1,1.7-0.9,1.7-1.8c0-1-0.7-1.8-1.7-1.8c-4.7,0-10.6,3.6-13.5,10.1v-8.2c0-1-0.7-1.6-1.6-1.6
	c-0.9,0-1.6,0.7-1.6,1.6V296.7z M187.1,281.4c0,9.4,7.2,17.4,17.2,17.4c10,0,17.3-8.2,17.3-17.6v-0.1c0-9.4-7.2-17.4-17.2-17.4
	c-10,0-17.3,8.2-17.3,17.6V281.4 M218.1,281.4c0,7.9-5.7,14.4-13.7,14.4c-7.8,0-13.8-6.5-13.8-14.6v-0.1c0-7.9,5.7-14.4,13.7-14.4
	c7.8,0,13.8,6.5,13.8,14.5V281.4 M259.6,265.9c0-1-0.7-1.6-1.6-1.6c-0.9,0-1.6,0.7-1.6,1.6v18c0,7-5.1,12-11.7,12
	c-6.8,0-10.7-4.5-10.7-11.5v-18.6c0-1-0.7-1.6-1.6-1.6c-0.9,0-1.6,0.7-1.6,1.6V285c0,8,4.9,13.8,13.4,13.8c6.1,0,9.9-3.1,12.1-7v4.9
	c0,1,0.7,1.6,1.6,1.6c0.9,0,1.6-0.7,1.6-1.6V265.9z M271.9,307.2c0,1,0.7,1.6,1.6,1.6s1.6-0.7,1.6-1.6v-16.4c2.8,4.2,7.1,8,13.8,8
	c8.1,0,16.3-6.7,16.3-17.6v-0.1c0-10.9-8.2-17.4-16.3-17.4c-6.7,0-10.9,3.9-13.8,8.3v-6.1c0-1-0.7-1.6-1.6-1.6
	c-0.9,0-1.6,0.7-1.6,1.6V307.2z M301.8,281.4c0,9-5.9,14.4-13.2,14.4c-7,0-13.7-5.8-13.7-14.4v-0.1c0-8.6,6.7-14.4,13.7-14.4
	c7,0,13.2,5.7,13.2,14.5V281.4"/>
<path class="st1" d="M335.6,275.8c0,36.8,29.8,66.6,66.6,66.6c36.8,0,66.6-29.8,66.6-66.6c0-36.8-29.8-66.6-66.6-66.6
	C365.4,209.3,335.6,239.1,335.6,275.8"/>
<path class="st0" d="M342.6,275.8c0,32.9,26.7,59.6,59.6,59.6c32.9,0,59.6-26.7,59.6-59.6c0-32.9-26.7-59.6-59.6-59.6
	C369.3,216.3,342.6,242.9,342.6,275.8"/>
<path class="st2" d="M466.8,281.6c-0.1-1.6-4.4-1.7-5.7-1.6c-0.3,0-0.6,0-0.8,0c-2.9,0.2-36.3,5.4-44.7,7.9c-2.6,0.4-3.7,0.9-4,1.9
	c-0.3,1,0.6,1.9,1.3,2.6c0.1,0.1,0.3,0.3,0.4,0.4c0.2,0.2,0.5,0.5,0.7,0.9c1,1.3,2.2,2.8,4,3c1.1,0.1,2.1-0.4,3.1-1.3
	c2.1-2,7.1-2.8,9.9-3.2c-2.8,3.1-9.7,10.4-13.1,12.4c-2.4,1.4-8.9,4.3-15.5,6.2c-7.8,2.3-13.1,2.4-15,0.3c-1.1-1.2-1.5-2.8-1.4-4.8
	c0.3-5.2,4.6-12.2,11.1-18.3c-0.5,3.2-0.8,5.7-1,7.3c-0.5,4.7,0,7.6,1.5,9.2c0.9,1,2.2,1.5,3.9,1.5c1.3,0,2.4-0.6,3.2-1.9
	c1.7-2.7,1.5-7.9,0.6-10.2l-0.1-0.2c-0.9-2-1.9-4.2-1-11.6l2.3-1.7c10.6-7.8,32.5-24.1,35.1-23.2c0.3,0.1,0.5,0.3,0.6,0.6
	c0.4,1.2-1.1,3.9-2.1,5.2c-0.2,0.3-0.2,0.8,0.1,1.1c0.3,0.3,0.7,0.4,1.1,0.1c1-0.6,9.7-6.1,14-8.2c0.9-0.4,1.7-1,2.4-1.7
	c1.7-1.8,2.4-4,1.6-5.6c-0.4-0.8-1.3-2-3.8-1.8c-0.4,0-0.8,0.1-1.3,0.1c-5.5,0.7-19.2,4-38.4,18c-0.1-0.7-0.8-1-3.8-1.3
	c-1.3-0.1-2.9-0.3-4.3-0.3l11-44.1c1.3-4,1.4-6.3,0.6-7.9c-0.1-0.2-0.4-0.5-0.8-0.6c-2.1-0.5-4.3-1-6.5-1.3c-0.2,0-0.3,0-0.5,0
	c-1.2,0.6-2.4,1.5-3.1,2.6c-1,1.5-1.7,2.4-3.3,4.4c-0.8,0.9-1.8,2.1-3.1,3.7c-1.3,1.6-3,3.6-5.3,6.3c-5.9,7.1-22.2,24.7-36.5,40.2
	l-4.8,5.1c-10,2.4-12.9,3.6-12.5,5.5c0.3,1.4,2.1,1.4,4.3,1.5c0.5,0,1.1,0,1.7,0.1c-1.9,2-3.6,3.9-5.1,5.6c-2.9,3.1-4.8,5.2-5.7,6.3
	c-0.2,0.2-0.3,0.4-0.4,0.6c-0.2,0.2-0.2,0.5-0.2,0.7c0.7,2.7,1.5,5.2,2.5,7.7c0.1,0.3,0.5,0.6,0.9,0.5c1.7-0.1,3.6-0.9,5.2-2.1
	c0.8-0.6,1.4-1.2,1.8-1.7c1.9-2.1,1.3-3.7,0.8-4.8c-0.3-0.8-0.5-1.2,0-1.8c0.9-1.4,6.4-6.3,14.6-13.1c3.9-1.3,8.5-2.7,12.7-3.7
	c6.1-1.4,15.7-3.3,24.5-4.9c-0.7,3.4-1.3,7-2,10.8c-16,14.3-26.3,25.2-24.2,32.3c1.1,3.6,5.3,6,13,7.1c5.6,0.8,21.5-3.9,32.7-8.7
	c-1.5,4.2-5.4,15.4-8.2,23.7c-1.1,3.2-1.9,5.5-2.4,7.3c-0.1,0.3,0,0.6,0.2,0.8c0.2,0.2,0.4,0.3,0.7,0.3l0.1,0
	c1.7-0.2,3.9-0.6,4.9-0.8c0.2,0,0.4-0.2,0.6-0.4c0.1-0.2,0.2-0.4,0.1-0.7c-0.3-1.1-0.3-2.2-0.1-3.2c0.2-0.7,0.6-1.8,1.3-3.6
	c3.8-10.4,14.2-34.4,21.4-43.1c1.9-0.7,15-5.1,22.5-6.6c0.5-0.1,1-0.2,1.4-0.2C465.8,283.1,466.8,282.6,466.8,281.6 M413.5,266.5
	c0.1,0,0.3,0,0.4,0c-2.7,2-5.4,4.2-8.2,6.6c0.3-1.7,0.7-3.6,1.1-5.6C409.9,266.9,412.2,266.6,413.5,266.5 M401.1,264.3
	c-2.1,0.3-8.8,1.5-18.6,3.5c-6.9,1.4-12.4,2.2-16.8,2.8l-0.4,0.1c0.1-0.1,0.2-0.3,0.4-0.5c0.7-0.8,2.4-2.5,8.4-9.8
	c8.5-10.5,28.3-28.9,33.6-33.5c-0.5,4.9-2.4,19.8-4.9,29.9C402.3,258.6,401.7,261,401.1,264.3"/>
</svg>
