<?xml version="1.0" encoding="utf-8"?>
<!-- Generator: Adobe Illustrator 19.2.1, SVG Export Plug-In . SVG Version: 6.00 Build 0)  -->
<svg version="1.1" id="layer" xmlns="http://www.w3.org/2000/svg" xmlns:xlink="http://www.w3.org/1999/xlink" x="0px" y="0px"
	 viewBox="0 0 652 652" style="enable-background:new 0 0 652 652;" xml:space="preserve">
<style type="text/css">
	.st0{fill:#225BAA;}
</style>
<polygon points="263.8,287.5 235.6,287.5 235.6,402.5 312.3,402.5 312.3,376.5 263.8,376.5 "/>
<g>
	<path d="M80.3,378c-18.2,0-33-14.8-33-33c0-18.1,14.7-32.9,32.8-33c11.5,0,21.9,3.7,29.4,9.9v-28.7l-0.4-0.2
		c-8.7-4.8-18.7-7.4-28.7-7.4c-32.8,0-59.4,26.7-59.4,59.4c0,32.8,26.7,59.4,59.4,59.4c10,0,20-2.5,28.7-7.4l0.4-0.2V368
		c-6.7,5.5-15.8,9.2-26,9.9C82.4,377.9,81.3,378,80.3,378"/>
	<path d="M183.6,378c-18.2,0-33.1-14.8-33.1-33c0-18.1,14.7-32.9,32.8-33c11.5,0,21.9,3.7,29.4,9.9v-28.7l-0.4-0.2
		c-8.7-4.8-18.7-7.4-28.7-7.4c-32.8,0-59.4,26.7-59.4,59.4c0,32.8,26.7,59.4,59.4,59.4c10,0,20-2.5,28.7-7.4l0.4-0.2V368
		c-6.7,5.5-15.8,9.2-26,9.9C185.7,377.9,184.6,378,183.6,378"/>
	<path d="M428.9,287.5L428.9,287.5h-69.1v165.1h165.1v-69.1C471.8,383.4,428.9,340.4,428.9,287.5"/>
	<path class="st0" d="M524.8,191.5c-53,0-96,43-96,96h0h96v96c53,0,96-43,96-96C620.8,234.4,577.8,191.5,524.8,191.5"/>
</g>
</svg>
