<?xml version="1.0" encoding="utf-8"?>
<!-- Generator: Adobe Illustrator 19.0.0, SVG Export Plug-In . SVG Version: 6.00 Build 0)  -->
<svg version="1.1" id="layer" xmlns="http://www.w3.org/2000/svg" xmlns:xlink="http://www.w3.org/1999/xlink" x="0px" y="0px"
	 viewBox="-153 -46 652 652" style="enable-background:new -153 -46 652 652;" xml:space="preserve">
<style type="text/css">
	.st0{fill:#006F5B;}
	.st1{fill:#5C9A8B;}
	.st2{fill:#6D6E70;}
</style>
<path class="st0" d="M-83.2,294.3l-42.9-42.9c-2.2,4.3-3.7,9-4.7,13.8l47.6,47.6V294.3 M-83.2,259.4l-27.1-27.1
	c-3.6,2.7-6.8,5.8-9.5,9.2l36.6,36.6V259.4 M-83.2,221.6c-6.1,0.6-11.8,2.3-17,4.7l17,17V221.6 M-131.5,280.5
	c2.4,25.6,22.7,46.1,48.3,48.6v-0.3L-131.5,280.5"/>
<path class="st1" d="M-55,226.4c-5.2-2.5-10.9-4-16.9-4.7v21.6L-55,226.4 M-72,329.3c25.3-2.7,45.5-23,48-48.4l-48,48L-72,329.3
	 M-72,312.7l47.4-47.4c-0.9-4.9-2.5-9.5-4.6-14L-72,294.2V312.7 M-72,278.2l36.4-36.4c-2.8-3.5-5.9-6.6-9.5-9.3l-26.9,27V278.2"/>
<path class="st2" d="M19.8,277.5c8.3,0,14-4,16.6-6.4l0.1-0.1v-16.7H18.8v4.9h12.4v9.5c-3.1,2.5-7.3,3.9-11.4,3.9
	c-9.4,0-15.7-6.7-15.7-16.5V256c0-9.1,6.7-16.3,15.1-16.3c6.1,0,9.4,2.2,12.1,4.5l0.3,0.3l3.5-4.1l-0.3-0.3
	c-4.6-3.9-9.1-5.5-15.4-5.5C7.8,234.6-1.4,244-1.4,256v0.1C-1.3,268.7,7.3,277.5,19.8,277.5 M58,245.4h-0.4
	c-4.9-0.2-9.2,2.5-11.9,7.1V246h-5.3v30.9h5.3v-12.4c0-8.1,4.5-13.3,11.5-13.3h0.7v-5.6 M69.5,277.5c5.1,0,8.4-2.3,10.4-4.4v3.8h5.2
	v-18.8c0-4-1-7-3.3-9.1c-2.3-2.3-5.7-3.4-10-3.4c-4.3,0-6.6,0.4-10.1,2.1l-0.2,0.1l0.1,5.1l0.5-0.2c3.3-1.4,6.2-2.2,9.1-2.2
	c5.5,0,8.5,2.7,8.5,7.7v0.4c-2.3-0.6-4.9-1.1-8.8-1.1c-8.3,0-13.2,3.8-13.2,10.3v0.1C57.9,274.1,63.8,277.5,69.5,277.5 M63.3,267.3
	c0-3.5,3.2-5.6,8.4-5.6c3.7,0,6.5,0.6,8.4,1.2v2.5c0,4.4-4.1,7.7-9.6,7.7c-3.5,0-7.2-1.7-7.2-5.5V267.3z M95.4,271.9
	c2.9,3.7,6.7,5.5,11.1,5.5c7.2,0,14.8-5.6,14.8-16v-0.1c0-10.4-7.6-16-14.8-16c-4.5,0-8.1,1.9-11.1,5.8V246H90v38.9h5.3L95.4,271.9
	 M105.6,250.1c5.8,0,10.2,4.7,10.2,11.2v0.1c0,6.6-4.2,11.2-10.2,11.2c-5.1,0-10.5-4.2-10.5-11.2v-0.1
	C95.2,254.4,100.6,250.1,105.6,250.1 M151.8,276.8v-19.1c0-7.6-4.7-12.4-11.9-12.4c-4.2,0-7.5,1.6-9.8,4.9v-16.7h-5.2v43.3h5.2
	v-17.6c0-5.3,3.6-9,8.6-9c4.9,0,7.9,3.3,7.9,8.7v18H151.8 M156.1,234.5h5.9v5.7h-5.9V234.5z M156.3,246h5.3v30.9h-5.3V246z
	 M193.9,271.3l-3.4-3.2l-0.3,0.3c-2.8,3-5.6,4.3-8.9,4.3c-5.9,0-10.7-4.9-10.7-11.3v-0.1c0-6.3,4.5-11.2,10.4-11.2
	c4.1,0,6.7,2.2,8.8,4.4l0.3,0.3l3.5-3.7l-0.3-0.3c-2.4-2.6-5.9-5.4-12.3-5.4c-8.7,0-15.8,7.2-15.8,16.1v0.1c0,8.8,7.1,16,15.8,16
	c6.5,0,10.1-3.2,12.5-5.9L193.9,271.3 M-1.6,301.6h1.7v15.6h-1.7V301.6z M5.8,301.6h1.6l9.8,12.5v-12.5H19v15.6h-1.4L7.6,304.4v12.7
	H5.8L5.8,301.6 M28.6,303.2h-5.1v-1.6h12.2v1.6h-5.2v14h-1.8L28.6,303.2 M40.1,301.6h11.2v1.6h-9.4v5.3h8.5v1.5h-8.5v5.5h9.5v1.5
	H40.1L40.1,301.6 M56.1,301.6h6.7c1.9,0,3.5,0.6,4.4,1.5c0.7,0.7,1.2,1.8,1.2,3.1c0,2.6-1.7,4.1-4.2,4.5L69,317h-2.2l-4.5-6.1h-4.4
	v6.1h-1.7v-15.5 M62.6,309.6c2.4,0,4-1.2,4-3.2c0-1.9-1.4-3.1-4-3.1h-4.8v6.4h4.8V309.6z M73.2,301.6h1.7l9.7,12.5v-12.5h1.7v15.6
	H85l-10.1-12.7v12.7h-1.7V301.6 M97.7,301.5h1.6l7.1,15.7h-1.8l-1.8-4.1h-8.5l-1.8,4.1h-1.8L97.7,301.5 M102,311.5l-3.5-7.9
	l-3.6,7.9H102z M111.1,303.2h-5.2v-1.6H118v1.6h-5.2v14h-1.7L111.1,303.2 M122.6,301.6h1.7v15.6h-1.7V301.6z M129.3,309.5
	c0-4.3,3.2-8.1,8-8.1c4.7,0,7.9,3.7,7.9,8c0,4.3-3.2,8-8,8C132.5,317.5,129.3,313.8,129.3,309.5 M143.4,309.5c0-3.6-2.6-6.5-6.2-6.5
	c-3.6,0-6.1,2.9-6.1,6.4c0,3.5,2.6,6.5,6.2,6.5C140.9,315.8,143.4,312.9,143.4,309.5 M150,301.6h1.6l9.8,12.5v-12.5h1.6v15.6h-1.3
	l-10.1-12.7v12.7H150V301.6 M174.5,301.5h1.6l7.1,15.7h-1.8l-1.8-4.1h-8.4l-1.8,4.1h-1.8L174.5,301.5 M178.9,311.5l-3.5-7.9
	l-3.6,7.9H178.9z M187.4,301.6h1.7v14h8.8v1.6h-10.6L187.4,301.6 M345.4,245.5c-4.3,0-6.6,0.4-10.1,2.1l-0.2,0.1l0.1,5.1l0.5-0.2
	c3.2-1.4,6.2-2.2,9.1-2.2c5.5,0,8.5,2.7,8.5,7.7v0.4c-2.3-0.6-4.9-1.1-8.8-1.1c-8.3,0-13.2,3.8-13.2,10.3v0.1
	c0,6.4,5.8,9.7,11.6,9.7c5.1,0,8.4-2.3,10.5-4.4v3.8h5.2v-18.8c0-4-1-7-3.3-9.1C353,246.8,349.7,245.5,345.4,245.5 M343.8,273.1
	c-3.5,0-7.2-1.7-7.2-5.5v-0.1c0-3.5,3.2-5.6,8.4-5.6c3.7,0,6.5,0.6,8.4,1.2v2.5C353.4,269.9,349.3,273.1,343.8,273.1 M255.8,245.5
	c-4.4,0-6.6,0.4-10,1.9l-0.2,0.1v5.2l0.6-0.3c3.2-1.4,6.2-2.2,9.1-2.2c5.5,0,8.5,2.7,8.5,7.7v0.5c-2.3-0.6-4.9-1.1-8.8-1.1
	c-8.3,0-13.2,3.8-13.2,10.3v0.1c0,6.4,5.8,9.7,11.6,9.7c5.1,0,8.4-2.3,10.5-4.4v3.8h5.2v-18.8c0-4-1-7-3.3-9.1
	C263.6,246.8,260.1,245.5,255.8,245.5 M254.4,273.1c-3.5,0-7.2-1.7-7.2-5.5v-0.1c0-3.5,3.2-5.6,8.4-5.6c3.7,0,6.5,0.6,8.4,1.2v2.5
	C263.9,269.9,259.8,273.1,254.4,273.1 M243.2,248.5c0-8.1-6.2-13.3-15.6-13.3h-14.1v41.5h5.4v-14.4h7.9c8.2,0,16.4-4.2,16.4-13.7
	v-0.1 M218.6,240.3h8.3c6.7,0,10.6,3.1,10.6,8.4v0.1c0,5.1-4.3,8.6-10.8,8.6h-8v-17.1H218.6z M297.5,268.3c-2.8,3-5.6,4.3-8.9,4.3
	c-5.9,0-10.7-4.9-10.7-11.3v-0.1c0-6.3,4.5-11.2,10.4-11.2c4.1,0,6.7,2.2,8.8,4.4l0.3,0.3l3.5-3.7l-0.3-0.3
	c-2.4-2.6-5.9-5.5-12.3-5.5c-8.7,0-15.8,7.3-15.8,16.1v0.1c0,8.8,7.1,16,15.8,16c6.5,0,10.1-3.2,12.5-5.9l0.3-0.3l-3.4-3.2
	L297.5,268.3 M331.7,245.9h-6.8l-15.6,16.4v-27.5H304v42.1h5.3v-8.1l5.6-5.7l10.6,13.8h6.4l-13.2-17.5L331.7,245.9 M387.5,250.6
	c-3-3.6-6.8-5.3-11.4-5.3c-7.2,0-14.6,5.4-14.6,14.6v0.1c0,9,7.4,14.5,14.6,14.5c4.5,0,8.3-1.8,11.4-5.5v2.4
	c0,6.6-3.8,10.3-10.6,10.3c-4.1,0-7.9-1.2-11.4-3.8l-0.4-0.3l-2.5,4.2l0.3,0.2c4.1,2.9,8.7,4.2,13.8,4.2c4.9,0,9-1.4,11.7-4.1
	c2.7-2.7,4-6.3,4-10.9v-25.1h-5V250.6 M387.6,259.8v0.1c0,6.1-5.5,9.7-10.7,9.7c-5.6,0-10.1-4.3-10.1-9.8v-0.1
	c0-5.6,4.2-9.7,10.1-9.7C382.3,250.1,387.6,253.8,387.6,259.8 M396.8,234.4h5.9v5.7h-5.9V234.4z M397.2,245.9h5.3v30.9h-5.3V245.9z
	 M422.5,245.2c-4.2,0-7.5,1.6-9.8,5V246h-5.2v30.9h5.2v-17.6c0-5.3,3.6-9,8.6-9c4.9,0,7.9,3.3,7.9,8.7v18h5.2v-19.1
	C434.4,250.2,429.7,245.2,422.5,245.2 M463.3,245.9v4.7c-3-3.6-6.8-5.3-11.4-5.3c-7.2,0-14.6,5.4-14.6,14.6v0.1
	c0,9,7.4,14.5,14.6,14.5c4.5,0,8.3-1.8,11.4-5.5v2.4c0,6.6-3.8,10.3-10.6,10.3c-4.1,0-7.9-1.2-11.3-3.8l-0.4-0.3l-2.5,4.2l0.3,0.2
	c4.1,2.9,8.7,4.2,13.8,4.2c5,0,9-1.4,11.7-4.1c2.7-2.7,4-6.3,4-10.9v-25.1H463.3 M463.5,259.8v0.1c0,6.1-5.5,9.7-10.7,9.7
	c-5.6,0-10.1-4.3-10.1-9.8v-0.1c0-5.6,4.2-9.7,10.1-9.7C458.1,250.1,463.5,253.8,463.5,259.8"/>
</svg>
