<?xml version="1.0" encoding="utf-8"?>
<!-- Generator: Adobe Illustrator 19.0.0, SVG Export Plug-In . SVG Version: 6.00 Build 0)  -->
<svg version="1.1" id="layer" xmlns="http://www.w3.org/2000/svg" xmlns:xlink="http://www.w3.org/1999/xlink" x="0px" y="0px"
	 viewBox="-153 -46 652 652" style="enable-background:new -153 -46 652 652;" xml:space="preserve">
<style type="text/css">
	.st0{fill:#008064;}
</style>
<path class="st0" d="M-23.6,294.5h37.8c-7.8,22.2-29.2,38.4-54.4,38.4c-31.8,0-57.8-26-57.8-57.8s26-57.8,57.8-57.8
	c23.2,0,43.2,14,52.6,33.8l1.9,3.8l2.3-3.8l16.2-32.2c-17-22-43.4-36-73-36c-50.6,0-91.8,41.2-91.8,92.2s41.2,92.2,92.2,92.2
	c27.4,0,52-12.2,68.8-30.8l-3.2,26.4h26.4l10-94.2h-82.8L-23.6,294.5z M274.8,289.3l3.6-32h-71.6l4.2-36.6h79l3.6-32H180l-19.2,171
	c-6.8-13.2-35.6-67.8-37.8-72.6c24-4.8,40.4-22.4,43.2-47.2c0.2-2.6,0.6-5,0.6-7.6c0-11-3.2-20-9.6-27c-9.8-11-27-16.6-51-16.6H44.8
	l-8,71.6h34.8c0.6-4.4,4.2-37.4,4.4-41.2h24c8.4,0,20.6,0.8,26.2,6.8c2.2,2.4,3.4,5.8,3.4,9.8c0,1,0,2.2-0.2,3.2
	c-2.2,19.6-19.6,21.4-37,21.4H71.6l-3.2,30.6h18.2c1,2.6,33.6,71.8,33.6,71.8h153.6l3.6-32h-79l4.8-41.2h71.6V289.3z M306.4,188.7
	l-19.8,173.6h34.8l19.8-173.6H306.4z M464.4,220.7l3.6-32H354.2l-19.8,173.6h34.8l8.6-73h71.4l3.4-32h-71.4l4.2-36.6H464.4z"/>
</svg>
