<?xml version="1.0" encoding="UTF-8" standalone="no"?>
<!DOCTYPE svg PUBLIC "-//W3C//DTD SVG 1.1//EN" "http://www.w3.org/Graphics/SVG/1.1/DTD/svg11.dtd">
<svg width="100%" height="100%" viewBox="0 0 112 57" version="1.1" xmlns="http://www.w3.org/2000/svg" xmlns:xlink="http://www.w3.org/1999/xlink" xml:space="preserve" xmlns:serif="http://www.serif.com/" style="fill-rule:evenodd;clip-rule:evenodd;stroke-linejoin:round;stroke-miterlimit:1.41421;">
    <g transform="matrix(1,0,0,1,-88,-65)">
        <path d="M90.042,67.68L90.042,110.82L101.957,110.82L101.957,98.969L111.644,98.969C116.456,98.969 120.764,96.784 123.642,93.358C125.555,103.277 134.401,110.842 144.845,110.842L167.35,110.842L173.129,102.373L178.865,98.044L178.865,111.01L190.927,111.01L190.948,88L197.651,83.062L197.651,82.62L162.685,106.387L197.651,80.351L197.651,79.889L165.312,101.848L197.651,77.598L197.651,77.136L167.96,97.33L197.651,74.825L197.651,74.383L170.691,92.686L197.651,72.093L197.651,71.651L190.927,76.211L190.948,67.785L178.908,67.785L160.458,98.99L144.845,98.99C139.487,98.99 135.137,94.598 135.137,89.303C135.137,83.923 139.487,79.595 144.845,79.595L164.072,79.595L164.03,67.701L144.845,67.701C137.049,67.701 130.199,71.862 126.395,78.082C124.231,72.03 118.41,67.68 111.644,67.68L90.042,67.68ZM101.957,87.075L101.957,79.574L111.644,79.574C113.724,79.574 115.405,81.255 115.405,83.335C115.405,85.394 113.724,87.075 111.644,87.075L101.957,87.075Z" style="fill:rgb(21,52,113);"/>
        <path d="M91.723,116.515C91.723,116.83 91.639,116.914 91.471,116.914L91.429,116.914L91.135,116.914L91.135,114.981L91.471,114.981C91.681,114.981 91.723,115.023 91.723,115.212L91.723,116.515ZM91.639,113.993L91.429,113.993L90,113.993L90,119.457L91.135,119.457L91.135,117.902L91.534,117.902C92.543,117.902 92.921,117.587 92.921,116.263L92.921,115.317C92.921,114.33 92.458,113.993 91.639,113.993Z" style="fill:rgb(21,52,113);fill-rule:nonzero;"/>
        <path d="M189.141,117.209L188.868,117.209L189.141,114.75L189.414,117.209L189.141,117.209ZM190.066,113.994L189.141,113.994L188.216,113.994L187.46,119.457L188.616,119.457L188.763,118.155L189.519,118.155L189.645,119.457L190.822,119.457L190.066,113.994Z" style="fill:rgb(21,52,113);fill-rule:nonzero;"/>
        <path d="M180.736,116.158C180.736,116.202 180.735,116.241 180.733,116.278C180.733,116.282 180.732,116.285 180.732,116.289C180.729,116.321 180.726,116.352 180.721,116.379C180.72,116.384 180.718,116.388 180.718,116.392C180.713,116.415 180.707,116.437 180.699,116.455C180.695,116.465 180.691,116.473 180.687,116.482C180.681,116.491 180.676,116.501 180.67,116.509C180.614,116.592 180.513,116.631 180.338,116.638C180.317,116.641 180.295,116.641 180.274,116.641L180.043,116.641L180.043,114.918L180.4,114.918C180.631,114.918 180.736,115.065 180.736,115.338L180.736,116.158ZM181.892,115.948L181.892,115.296C181.892,115.232 181.891,115.171 181.888,115.112C181.888,115.111 181.887,115.109 181.887,115.107C181.842,114.233 181.456,113.994 180.316,113.994L178.908,113.994L178.908,119.457L180.043,119.457L180.043,117.566L180.232,117.566C180.265,117.566 180.297,117.566 180.327,117.569C180.646,117.586 180.736,117.691 180.736,117.902L180.736,119.457L181.892,119.457L181.892,117.965C181.892,117.293 181.619,117.209 181.114,117.082L181.114,117.062C181.598,116.978 181.892,116.788 181.892,115.948Z" style="fill:rgb(21,52,113);fill-rule:nonzero;"/>
        <path d="M168.864,117.209L168.591,117.209L168.864,114.75L169.136,117.209L168.864,117.209ZM169.789,113.994L168.864,113.994L167.938,113.994L167.182,119.457L168.337,119.457L168.485,118.155L169.241,118.155L169.367,119.457L170.545,119.457L169.789,113.994Z" style="fill:rgb(21,52,113);fill-rule:nonzero;"/>
        <path d="M161.361,118.322C161.361,118.532 161.277,118.595 161.067,118.595C160.857,118.595 160.773,118.532 160.773,118.322L160.773,115.128C160.773,114.918 160.857,114.876 161.067,114.876C161.277,114.876 161.361,114.918 161.361,115.128L161.361,118.322ZM161.067,113.931C160.121,113.931 159.596,114.161 159.596,115.065L159.596,118.406C159.596,119.289 160.121,119.52 161.067,119.52C162.033,119.52 162.538,119.289 162.538,118.406L162.538,115.065C162.538,114.161 162.033,113.931 161.067,113.931Z" style="fill:rgb(21,52,113);fill-rule:nonzero;"/>
        <path d="M130.241,116.158C130.241,116.202 130.24,116.241 130.238,116.278C130.237,116.282 130.237,116.285 130.237,116.289C130.234,116.321 130.231,116.352 130.226,116.379C130.225,116.384 130.223,116.388 130.222,116.393C130.218,116.415 130.212,116.437 130.204,116.455C130.2,116.465 130.196,116.474 130.191,116.482C130.186,116.492 130.181,116.501 130.175,116.509C130.12,116.592 130.018,116.631 129.843,116.638C129.821,116.641 129.8,116.641 129.779,116.641L129.548,116.641L129.548,114.918L129.905,114.918C130.136,114.918 130.241,115.065 130.241,115.338L130.241,116.158ZM131.376,115.948L131.376,115.296C131.376,115.232 131.375,115.171 131.372,115.112L131.372,115.111C131.33,114.234 130.963,113.994 129.821,113.994L128.413,113.994L128.413,119.457L129.548,119.457L129.548,117.566L129.737,117.566C129.769,117.566 129.796,117.566 129.823,117.569C130.149,117.585 130.241,117.69 130.241,117.902L130.241,119.457L131.376,119.457L131.376,117.965C131.376,117.293 131.124,117.209 130.598,117.082L130.598,117.062C131.082,116.978 131.376,116.788 131.376,115.948Z" style="fill:rgb(21,52,113);fill-rule:nonzero;"/>
        <path d="M151.927,118.322C151.927,118.532 151.843,118.595 151.611,118.595C151.402,118.595 151.317,118.532 151.317,118.322L151.317,115.128C151.317,114.918 151.402,114.876 151.611,114.876C151.843,114.876 151.927,114.918 151.927,115.128L151.927,118.322ZM151.611,113.931C150.666,113.931 150.141,114.161 150.141,115.065L150.141,118.406C150.141,119.289 150.666,119.52 151.611,119.52C152.578,119.52 153.104,119.289 153.104,118.406L153.104,115.065C153.104,114.161 152.578,113.931 151.611,113.931Z" style="fill:rgb(21,52,113);fill-rule:nonzero;"/>
        <path d="M143.816,117.209L143.543,117.209L143.795,114.75L143.816,114.75L144.088,117.209L143.816,117.209ZM144.741,113.994L143.816,113.994L142.87,113.994L142.134,119.457L143.289,119.457L143.437,118.155L144.172,118.155L144.319,119.457L145.475,119.457L144.741,113.994Z" style="fill:rgb(21,52,113);fill-rule:nonzero;"/>
        <path d="M140.6,116.158C140.6,116.202 140.599,116.241 140.597,116.278C140.596,116.282 140.596,116.285 140.596,116.289C140.594,116.321 140.59,116.352 140.585,116.379C140.584,116.384 140.582,116.388 140.582,116.392C140.577,116.415 140.571,116.437 140.563,116.455C140.559,116.465 140.555,116.473 140.551,116.482C140.545,116.491 140.54,116.501 140.533,116.509C140.478,116.592 140.377,116.631 140.202,116.638C140.18,116.641 140.159,116.641 140.138,116.641L139.907,116.641L139.907,114.918L140.264,114.918C140.495,114.918 140.6,115.065 140.6,115.338L140.6,116.158ZM141.756,115.948L141.756,115.296C141.756,115.232 141.755,115.171 141.752,115.112C141.751,115.111 141.751,115.109 141.751,115.107C141.706,114.233 141.32,113.994 140.18,113.994L138.772,113.994L138.772,119.457L139.907,119.457L139.907,117.566L140.096,117.566C140.129,117.566 140.161,117.566 140.191,117.569C140.51,117.586 140.6,117.691 140.6,117.902L140.6,119.457L141.756,119.457L141.756,117.965C141.756,117.293 141.483,117.209 140.978,117.082L140.978,117.062C141.441,116.978 141.756,116.788 141.756,115.948Z" style="fill:rgb(21,52,113);fill-rule:nonzero;"/>
        <path d="M137.07,118.322C137.07,118.532 136.986,118.595 136.776,118.595C136.566,118.595 136.482,118.532 136.482,118.322L136.482,115.128C136.482,114.918 136.566,114.876 136.776,114.876C136.986,114.876 137.07,114.918 137.07,115.128L137.07,118.322ZM136.776,113.931C135.83,113.931 135.305,114.161 135.305,115.065L135.305,118.406C135.305,119.289 135.83,119.52 136.776,119.52C137.742,119.52 138.247,119.289 138.247,118.406L138.247,115.065C138.247,114.161 137.742,113.931 136.776,113.931Z" style="fill:rgb(21,52,113);fill-rule:nonzero;"/>
        <path d="M133.666,116.515C133.666,116.83 133.582,116.914 133.414,116.914L133.372,116.914L133.078,116.914L133.078,114.981L133.414,114.981C133.603,114.981 133.666,115.023 133.666,115.212L133.666,116.515ZM133.582,113.993L133.372,113.993L131.943,113.993L131.943,119.457L133.078,119.457L133.078,117.902L133.456,117.902C134.486,117.902 134.843,117.587 134.843,116.263L134.843,115.317C134.843,114.33 134.401,113.993 133.582,113.993Z" style="fill:rgb(21,52,113);fill-rule:nonzero;"/>
        <path d="M126.711,118.322C126.711,118.532 126.627,118.595 126.417,118.595C126.207,118.595 126.123,118.532 126.123,118.322L126.123,115.128C126.123,114.918 126.207,114.876 126.417,114.876C126.627,114.876 126.711,114.918 126.711,115.128L126.711,118.322ZM126.417,113.931C125.45,113.931 124.946,114.161 124.946,115.065L124.946,118.406C124.946,119.289 125.45,119.52 126.417,119.52C127.362,119.52 127.887,119.289 127.887,118.406L127.887,115.065C127.887,114.161 127.362,113.931 126.417,113.931Z" style="fill:rgb(21,52,113);fill-rule:nonzero;"/>
        <path d="M104.941,117.209L104.668,117.209L104.92,114.75L104.941,114.75L105.214,117.209L104.941,117.209ZM105.866,113.994L104.941,113.994L104.016,113.994L103.26,119.457L104.416,119.457L104.563,118.155L105.298,118.155L105.445,119.457L106.601,119.457L105.866,113.994Z" style="fill:rgb(21,52,113);fill-rule:nonzero;"/>
        <path d="M94.602,117.209L94.308,117.209L94.581,114.75L94.602,114.75L94.875,117.209L94.602,117.209ZM95.526,113.994L94.602,113.994L93.656,113.994L92.921,119.457L94.077,119.457L94.224,118.155L94.959,118.155L95.106,119.457L96.262,119.457L95.526,113.994Z" style="fill:rgb(21,52,113);fill-rule:nonzero;"/>
        <path d="M116.288,115.065C116.288,114.162 116.792,113.931 117.759,113.931C118.662,113.931 119.23,114.099 119.23,115.212L119.23,115.759L118.137,115.759L118.137,115.191C118.137,114.939 118.053,114.876 117.759,114.876C117.549,114.876 117.465,114.939 117.465,115.212L117.465,118.385C117.465,118.511 117.549,118.596 117.78,118.596C118.053,118.596 118.137,118.511 118.137,118.407L118.137,117.545L117.78,117.545L117.78,116.515L119.23,116.515L119.23,118.28C119.23,119.331 118.852,119.52 117.759,119.52C116.792,119.52 116.288,119.289 116.288,118.407L116.288,115.065Z" style="fill:rgb(21,52,113);"/>
        <path d="M165.207,114.981L165.207,113.993L163.064,113.993L163.064,119.457L164.198,119.457L164.198,117.313L165.123,117.313L165.123,116.326L164.198,116.326L164.198,114.981L165.207,114.981Z" style="fill:rgb(21,52,113);fill-rule:nonzero;"/>
        <path d="M173.78,113.994L173.213,118.302L172.645,113.994L170.859,113.994L170.859,119.457L171.868,119.457L171.868,114.835L171.889,114.835L172.519,119.457L173.822,119.457L174.558,114.856L174.579,114.856L174.536,119.457L175.566,119.457L175.566,113.994L173.78,113.994Z" style="fill:rgb(21,52,113);fill-rule:nonzero;"/>
        <path d="M102.083,116.599L103.05,113.993L101.831,113.993L101.095,116.305L101.095,113.993L99.961,113.993L99.961,119.457L101.095,119.457L101.095,117.04L101.095,117.02L101.957,119.457L103.176,119.457L102.083,116.599Z" style="fill:rgb(21,52,113);fill-rule:nonzero;"/>
        <path d="M99.393,115.864L99.393,114.876C99.393,114.225 99.078,113.931 98.09,113.931L97.67,113.931C96.808,113.931 96.514,114.393 96.514,115.255L96.514,118.344C96.514,119.058 96.808,119.52 97.67,119.52L98.09,119.52C99.057,119.52 99.393,119.226 99.393,118.26L99.393,117.44L98.279,117.44L98.279,118.302C98.279,118.469 98.195,118.533 97.985,118.533C97.796,118.533 97.691,118.469 97.691,118.302L97.691,115.15C97.691,114.981 97.796,114.918 98.006,114.918C98.195,114.918 98.279,114.981 98.279,115.15L98.279,115.864L99.393,115.864Z" style="fill:rgb(21,52,113);fill-rule:nonzero;"/>
        <path d="M109.816,115.759L109.816,115.213C109.816,114.099 109.228,113.931 108.345,113.931C107.378,113.931 106.853,114.162 106.853,115.065L106.853,118.407C106.853,119.289 107.378,119.52 108.345,119.52C109.438,119.52 109.816,119.332 109.816,118.281L109.816,116.516L108.366,116.516L108.366,117.545L108.723,117.545L108.723,118.407C108.723,118.512 108.639,118.596 108.345,118.596C108.114,118.596 108.051,118.512 108.051,118.386L108.051,115.213C108.051,114.939 108.114,114.876 108.345,114.876C108.639,114.876 108.723,114.939 108.723,115.192L108.723,115.759L109.816,115.759Z" style="fill:rgb(21,52,113);fill-rule:nonzero;"/>
        <rect x="110.404" y="113.994" width="1.135" height="5.463" style="fill:rgb(21,52,113);fill-rule:nonzero;"/>
        <path d="M114.67,113.994L114.754,118.239L114.733,118.26L113.893,113.994L112.232,113.994L112.232,119.457L113.283,119.457L113.22,115.192L114.061,119.457L115.721,119.457L115.721,113.994L114.67,113.994Z" style="fill:rgb(21,52,113);fill-rule:nonzero;"/>
        <path d="M116.288,115.065C116.288,114.162 116.792,113.931 117.759,113.931C118.662,113.931 119.23,114.099 119.23,115.212L119.23,115.759L118.137,115.759L118.137,115.191C118.137,114.939 118.053,114.876 117.759,114.876C117.549,114.876 117.465,114.939 117.465,115.212L117.465,118.385C117.465,118.511 117.549,118.596 117.78,118.596C118.053,118.596 118.137,118.511 118.137,118.407L118.137,117.545L117.78,117.545L117.78,116.515L119.23,116.515L119.23,118.28C119.23,119.331 118.852,119.52 117.759,119.52C116.792,119.52 116.288,119.289 116.288,118.407L116.288,115.065Z" style="fill:rgb(21,52,113);"/>
        <path d="M124.441,115.864L124.441,114.876C124.441,114.225 124.147,113.931 123.138,113.931L122.718,113.931C121.877,113.931 121.562,114.393 121.562,115.255L121.562,118.344C121.562,119.058 121.877,119.52 122.718,119.52L123.138,119.52C124.105,119.52 124.441,119.226 124.441,118.26L124.441,117.44L123.349,117.44L123.349,118.302C123.349,118.469 123.243,118.533 123.054,118.533C122.865,118.533 122.76,118.469 122.76,118.302L122.76,115.15C122.76,114.981 122.865,114.918 123.054,114.918C123.243,114.918 123.349,114.981 123.349,115.15L123.349,115.864L124.441,115.864Z" style="fill:rgb(21,52,113);fill-rule:nonzero;"/>
        <path d="M145.307,113.994L145.307,114.982L146.106,114.982L146.106,119.457L147.241,119.457L147.241,114.982L148.039,114.982L148.039,113.994L145.307,113.994Z" style="fill:rgb(21,52,113);fill-rule:nonzero;"/>
        <rect x="148.417" y="113.994" width="1.135" height="5.463" style="fill:rgb(21,52,113);fill-rule:nonzero;"/>
        <path d="M156.087,113.994L156.171,118.239L156.15,118.26L155.31,113.994L153.649,113.994L153.649,119.457L154.7,119.457L154.637,115.192L154.658,115.192L155.478,119.457L157.138,119.457L157.138,113.994L156.087,113.994Z" style="fill:rgb(21,52,113);fill-rule:nonzero;"/>
        <path d="M177.29,118.469L177.29,117.103L178.278,117.103L178.278,116.179L177.29,116.179L177.29,114.981L178.341,114.981L178.341,113.993L176.155,113.993L176.155,119.457L178.425,119.457L178.425,118.469L177.29,118.469Z" style="fill:rgb(21,52,113);fill-rule:nonzero;"/>
        <rect x="182.501" y="113.994" width="1.135" height="5.463" style="fill:rgb(21,52,113);fill-rule:nonzero;"/>
        <path d="M187.103,115.864L187.103,114.876C187.103,114.225 186.788,113.931 185.8,113.931L185.38,113.931C184.539,113.931 184.224,114.393 184.224,115.255L184.224,118.344C184.224,119.058 184.539,119.52 185.38,119.52L185.8,119.52C186.767,119.52 187.103,119.226 187.103,118.26L187.103,117.44L186.01,117.44L186.01,118.302C186.01,118.469 185.905,118.533 185.695,118.533C185.506,118.533 185.401,118.469 185.401,118.302L185.401,115.15C185.401,114.981 185.506,114.918 185.716,114.918C185.905,114.918 186.01,114.981 186.01,115.15L186.01,115.864L187.103,115.864Z" style="fill:rgb(21,52,113);fill-rule:nonzero;"/>
    </g>
</svg>
